<?xml version="1.0" encoding="UTF-8"?>
<svg width="400" height="30" viewBox="0 0 400 30" fill="none" xmlns="http://www.w3.org/2000/svg">
  <g opacity="0.2">
    <path d="M15 0C6.716 0 0 6.716 0 15C0 23.284 6.716 30 15 30C23.284 30 30 23.284 30 15C30 6.716 23.284 0 15 0ZM13 25L3 15L6.5 11.5L13 18L22.5 8.5L26 12L13 25Z" fill="#009933"/>
    <path d="M59 0C50.716 0 44 6.716 44 15C44 23.284 50.716 30 59 30C67.284 30 74 23.284 74 15C74 6.716 67.284 0 59 0ZM57 25L47 15L50.5 11.5L57 18L66.5 8.5L70 12L57 25Z" fill="#009933"/>
    <path d="M103 0C94.716 0 88 6.716 88 15C88 23.284 94.716 30 103 30C111.284 30 118 23.284 118 15C118 6.716 111.284 0 103 0ZM101 25L91 15L94.5 11.5L101 18L110.5 8.5L114 12L101 25Z" fill="#009933"/>
    <path d="M147 0C138.716 0 132 6.716 132 15C132 23.284 138.716 30 147 30C155.284 30 162 23.284 162 15C162 6.716 155.284 0 147 0ZM145 25L135 15L138.5 11.5L145 18L154.5 8.5L158 12L145 25Z" fill="#009933"/>
    <path d="M191 0C182.716 0 176 6.716 176 15C176 23.284 182.716 30 191 30C199.284 30 206 23.284 206 15C206 6.716 199.284 0 191 0ZM189 25L179 15L182.5 11.5L189 18L198.5 8.5L202 12L189 25Z" fill="#009933"/>
    <path d="M235 0C226.716 0 220 6.716 220 15C220 23.284 226.716 30 235 30C243.284 30 250 23.284 250 15C250 6.716 243.284 0 235 0ZM233 25L223 15L226.5 11.5L233 18L242.5 8.5L246 12L233 25Z" fill="#009933"/>
    <path d="M279 0C270.716 0 264 6.716 264 15C264 23.284 270.716 30 279 30C287.284 30 294 23.284 294 15C294 6.716 287.284 0 279 0ZM277 25L267 15L270.5 11.5L277 18L286.5 8.5L290 12L277 25Z" fill="#009933"/>
    <path d="M323 0C314.716 0 308 6.716 308 15C308 23.284 314.716 30 323 30C331.284 30 338 23.284 338 15C338 6.716 331.284 0 323 0ZM321 25L311 15L314.5 11.5L321 18L330.5 8.5L334 12L321 25Z" fill="#009933"/>
    <path d="M367 0C358.716 0 352 6.716 352 15C352 23.284 358.716 30 367 30C375.284 30 382 23.284 382 15C382 6.716 375.284 0 367 0ZM365 25L355 15L358.5 11.5L365 18L374.5 8.5L378 12L365 25Z" fill="#009933"/>
  </g>
</svg>